<svg version="1.1" viewBox="0.0 0.0 479.1994750656168 482.1994750656168" fill="none" stroke="none" stroke-linecap="square" stroke-miterlimit="10" xmlns:xlink="http://www.w3.org/1999/xlink" xmlns="http://www.w3.org/2000/svg"><clipPath id="p.0"><path d="m0 0l479.19946 0l0 482.19946l-479.19946 0l0 -482.19946z" clip-rule="nonzero"/></clipPath><g clip-path="url(#p.0)"><path fill="#000000" fill-opacity="0.0" d="m0 0l479.19946 0l0 482.19946l-479.19946 0z" fill-rule="evenodd"/><path fill="#000000" fill-opacity="0.0" d="m57.597115 29.39895l366.01575 0l0 350.99213l-366.01575 0z" fill-rule="evenodd"/><path fill="#ffffff" d="m236.10147 361.72708q-22.0 0 -44.171875 -4.65625q-22.156235 -4.671875 -37.48436 -12.671875l7.328125 -24.0q10.328125 5.0 23.15625 8.84375q12.843735 3.828125 26.499985 6.0q13.671875 2.15625 26.34375 2.15625q29.328125 0 45.15625 -11.328125q15.84375 -11.34375 15.84375 -32.0q0 -11.671875 -4.84375 -19.5q-4.828125 -7.84375 -13.828125 -13.0q-9.0 -5.171875 -21.5 -9.171875q-12.5 -4.0 -27.15625 -8.0q-16.0 -4.328125 -29.671875 -9.828125q-13.671875 -5.5 -24.17186 -13.328125q-10.5 -7.84375 -16.328125 -19.0q-5.828125 -11.171875 -5.828125 -26.84375q0 -30.65625 23.0 -47.15625q22.999985 -16.500008 64.656235 -16.500008q21.34375 0 42.5 4.171875q21.171875 4.15625 35.5 11.15625l-7.328125 24.000008q-14.0 -6.671875 -33.0 -10.828125q-19.0 -4.171875 -38.0 -4.171875q-29.0 0 -44.34375 10.34375q-15.32811 10.328125 -15.32811 29.328125q0 11.0 4.6718597 18.328125q4.671875 7.328125 13.171875 12.328125q8.5 5.0 20.0 8.84375q11.5 3.828125 25.828125 7.828125q16.671875 4.65625 31.171875 10.15625q14.5 5.5 25.328125 13.5q10.828125 8.0 17.15625 19.5q6.34375 11.5 6.34375 28.171875q0 31.671875 -23.84375 49.5q-23.828125 17.828125 -66.828125 17.828125z" fill-rule="nonzero"/><path fill="#000000" d="m0 241.10236l0 0c0 -133.15715 107.27539 -241.10236 239.6063 -241.10236l0 0c63.547546 0 124.49234 25.401783 169.42725 70.61725c44.934906 45.21546 70.17905 106.54079 70.17905 170.4851l0 0c0 133.15717 -107.27539 241.10236 -239.6063 241.10236l0 0c-132.3309 0 -239.6063 -107.94519 -239.6063 -241.10236z" fill-rule="evenodd"/><path fill="#ffffff" d="m137.00139 305.53238q-11.53125 0 -23.15625 -2.4375q-11.609375 -2.453125 -19.640625 -6.640625l3.84375 -12.578125q5.40625 2.609375 12.125 4.625q6.734375 2.0 13.890625 3.140625q7.171875 1.140625 13.8125 1.140625q15.359375 0 23.65625 -5.9375q8.296875 -5.9375 8.296875 -16.765625q0 -6.125 -2.53125 -10.21875q-2.53125 -4.109375 -7.25 -6.8125q-4.71875 -2.703125 -11.265625 -4.796875q-6.546875 -2.109375 -14.234375 -4.203125q-8.375 -2.265625 -15.546875 -5.140625q-7.15625 -2.890625 -12.65625 -6.984375q-5.5 -4.109375 -8.5625 -9.953125q-3.046875 -5.859375 -3.046875 -14.078125q0 -16.0625 12.046875 -24.703125q12.046875 -8.65625 33.875 -8.65625q11.1875 0 22.265625 2.1875q11.09375 2.1875 18.609375 5.84375l-3.84375 12.578125q-7.328125 -3.484375 -17.296875 -5.671875q-9.953125 -2.1875 -19.90625 -2.1875q-15.1875 0 -23.234375 5.421875q-8.03125 5.40625 -8.03125 15.359375q0 5.765625 2.4375 9.609375q2.453125 3.84375 6.90625 6.46875q4.453125 2.625 10.484375 4.640625q6.03125 2.0 13.53125 4.09375q8.734375 2.4375 16.328125 5.328125q7.609375 2.875 13.28125 7.078125q5.671875 4.1875 8.984375 10.21875q3.328125 6.015625 3.328125 14.75q0 16.59375 -12.484375 25.9375q-12.484375 9.34375 -35.015625 9.34375zm73.001465 -1.75l0 -127.5l13.796875 0l0 48.90625l0.34375 0q5.25 -6.8125 13.453125 -10.390625q8.203125 -3.578125 18.85936 -3.578125q16.765625 0 24.53125 8.90625q7.78125 8.90625 7.609375 27.765625l0 55.890625l-13.625 0l0 -53.4375q0.171875 -14.15625 -5.25 -20.78125q-5.40625 -6.640625 -16.749985 -6.640625q-8.5625 0 -15.109375 3.40625q-6.546875 3.40625 -10.21875 9.25q-3.671875 5.84375 -3.84375 13.703125l0 54.5l-13.796875 0zm126.26799 1.75q-13.796875 0 -21.828125 -7.421875q-8.03125 -7.421875 -8.03125 -20.0q0 -15.71875 12.75 -24.1875q12.75 -8.46875 36.5 -8.46875l14.5 0q0 -8.734375 -2.09375 -13.625q-2.09375 -4.890625 -6.984375 -6.890625q-4.890625 -2.015625 -13.625 -2.015625q-8.734375 0 -17.734375 1.75q-8.984375 1.734375 -17.203125 5.234375l-2.4375 -11.1875q8.734375 -3.65625 18.765625 -5.578125q10.046875 -1.921875 20.359375 -1.921875q13.09375 0 20.59375 3.3125q7.515625 3.3125 10.828125 11.171875q3.328125 7.859375 3.328125 20.96875l0 57.109375l-13.265625 0l-0.1875 -12.40625l-0.34375 0q-4.546875 6.296875 -14.0625 10.234375q-9.515625 3.921875 -19.828125 3.921875zm4.375 -11.359375q8.203125 0 14.921875 -3.140625q6.734375 -3.140625 10.65625 -8.46875q3.9375 -5.328125 3.9375 -11.796875l0 -14.671875l-12.75 0q-18.515625 0 -27.953125 5.328125q-9.421875 5.328125 -9.421875 15.46875q0 8.03125 5.40625 12.65625q5.421875 4.625 15.203125 4.625z" fill-rule="nonzero"/></g></svg>